<svg fill="none" xmlns="http://www.w3.org/2000/svg" viewBox="0 0 16 16">
    <g clip-path="url(#prefix__a)">
        <path d="M8 0C5.827 0 5.556.01 4.702.048 3.85.088 3.27.222 2.76.42a3.923 3.923 0 0 0-1.417.923A3.89 3.89 0 0 0 .42 2.76C.222 3.27.088 3.85.048 4.702.008 5.556 0 5.827 0 8c0 2.174.01 2.444.048 3.298.04.851.174 1.432.372 1.942.204.525.478.973.923 1.418.444.444.89.719 1.417.922.51.197 1.09.332 1.942.372.854.04 1.125.048 3.298.048 2.174 0 2.444-.01 3.298-.048.851-.04 1.432-.175 1.942-.372a3.934 3.934 0 0 0 1.418-.922 3.9 3.9 0 0 0 .922-1.418c.197-.51.332-1.09.372-1.942.04-.854.048-1.124.048-3.298 0-2.173-.01-2.444-.048-3.298-.04-.852-.175-1.433-.372-1.942a3.93 3.93 0 0 0-.922-1.417A3.893 3.893 0 0 0 13.24.42c-.51-.198-1.09-.332-1.942-.372C10.444.008 10.174 0 8 0zm0 1.44c2.136 0 2.39.01 3.233.048.78.036 1.204.165 1.485.276.374.145.64.318.921.597.28.28.453.546.598.921.11.281.24.704.275 1.484.038.845.047 1.098.047 3.234s-.01 2.39-.05 3.233c-.04.78-.17 1.204-.28 1.485-.15.374-.32.64-.6.921-.279.28-.549.453-.92.598-.28.11-.71.24-1.49.275-.849.038-1.099.047-3.239.047-2.14 0-2.39-.01-3.24-.05-.78-.04-1.21-.17-1.49-.28a2.48 2.48 0 0 1-.92-.6c-.28-.279-.46-.549-.6-.92-.11-.28-.239-.71-.28-1.49-.03-.84-.04-1.099-.04-3.229s.01-2.39.04-3.24c.041-.78.17-1.21.28-1.49.14-.38.32-.64.6-.92.28-.28.54-.46.92-.599.28-.11.7-.24 1.48-.28.85-.03 1.1-.04 3.24-.04L8 1.44zm0 2.452a4.108 4.108 0 1 0 0 8.215 4.108 4.108 0 0 0 0-8.215zm0 6.774a2.666 2.666 0 1 1 0-5.333 2.666 2.666 0 1 1 0 5.333zm5.23-6.936a.96.96 0 1 1-1.92-.001.96.96 0 0 1 1.92.001z" fill="#E4405F"/>
    </g>
    <defs>
        <clipPath id="prefix__a">
            <path fill="#fff" d="M0 0h16v16H0z"/>
        </clipPath>
    </defs>
</svg>
